<svg width="750" height="750" viewBox="0 0 750 750" fill="none" xmlns="http://www.w3.org/2000/svg">
<path d="M617.342 661.183C551.982 716.585 467.393 750 375 750C352.237 750 329.949 747.97 308.305 744.085L486.755 435.001L617.342 661.183ZM248.282 728.049C143.021 690.263 59.5571 606.74 21.8516 501.44H379.115L248.282 728.049ZM750 375C750 467.35 716.616 551.903 661.26 617.251L483.037 308.56H750V375ZM229.396 375L267.755 441.44H5.86816C2.01265 419.876 0 397.673 0 375C0 282.388 33.5728 197.618 89.2109 132.194L229.396 375ZM302.396 248.56H302.396L264.036 315.001L133.188 88.3662C198.475 33.2324 282.857 0 375 0H445.902L302.396 248.56ZM750 248.56H371.678L515.184 0H750V248.56Z" fill="white"/>
</svg>
