{"asset":{"version":"2.0","generator":"headless-battletest node-anim builder"},"scene":0,"scenes":[{"nodes":[0]}],"nodes":[{"mesh":0,"scale":[0.01,0.01,0.01],"name":"spin"}],"meshes":[{"primitives":[{"attributes":{"POSITION":0},"indices":1,"material":0}]}],"materials":[{"pbrMetallicRoughness":{"baseColorFactor":[0.9,0.5,0.2,1],"metallicFactor":0,"roughnessFactor":0.8}}],"animations":[{"name":"Spin","samplers":[{"input":2,"output":3,"interpolation":"LINEAR"}],"channels":[{"sampler":0,"target":{"node":0,"path":"rotation"}}]}],"bufferViews":[{"buffer":0,"byteOffset":0,"byteLength":288,"target":34962},{"buffer":0,"byteOffset":288,"byteLength":72,"target":34963},{"buffer":0,"byteOffset":360,"byteLength":20},{"buffer":0,"byteOffset":380,"byteLength":80}],"accessors":[{"bufferView":0,"componentType":5126,"count":24,"type":"VEC3","min":[-50,-50,-50],"max":[50,50,50]},{"bufferView":1,"componentType":5123,"count":36,"type":"SCALAR"},{"bufferView":2,"componentType":5126,"count":5,"type":"SCALAR","min":[0],"max":[2]},{"bufferView":3,"componentType":5126,"count":5,"type":"VEC4"}],"buffers":[{"byteLength":460,"uri":"spincube.bin"}]}